<svg xmlns="http://www.w3.org/2000/svg" viewBox="0 0 32 32" width="32" height="32">
  <g>
    <circle cx="16" cy="16" r="16" fill="#25d366"/>
    <path d="M22.66 19.88c-.36-.18-2.13-1.05-2.46-1.16-.33-.12-.57-.18-.81.18-.24.36-.93 1.16-1.14 1.4-.21.24-.42.27-.78.09-.36-.18-1.53-.56-2.91-1.78-1.08-.97-1.82-2.17-2.04-2.53-.21-.36-.02-.56.16-.74.16-.16.36-.42.54-.63.18-.21.24-.36.36-.6.12-.24.06-.45-.03-.63-.09-.18-.81-1.95-1.11-2.67-.29-.7-.59-.6-.81-.61-.21-.02-.45-.02-.69-.02-.24 0-.63.09-.96.45-.33.36-1.26 1.24-1.26 3.01s1.29 3.49 1.47 3.73c.18.24 2.5 3.81 6.06 5.15.85.29 1.51.46 2.02.59.85.21 1.63.18 2.25.11.69-.08 2.13-.87 2.43-1.71.3-.84.3-1.57.21-1.72-.09-.15-.33-.24-.69-.42z" fill="#fff"/>
  </g>
</svg>